<svg preserveAspectRatio="xMidYMid meet" data-bbox="0 0 1070 1070" viewBox="0 0 1070 1070" xmlns="http://www.w3.org/2000/svg" data-type="color" role="img" aria-label="PCFC Logo">
    <g>
        <path fill="#ffffff" d="M1045 535c0 281.665-228.335 510-510 510-281.665 0-510-228.335-510-510C25 253.335 253.335 25 535 25c281.665 0 510 228.335 510 510z" data-color="1"></path>
        <path d="M310.903 340.656c-3.11 7.308-4.428 15.23-4.103 23.085a367.63 367.63 0 0 1 12.875-6.725c2.52-8.804 7.103-16.947 13.74-23.6 6.708-6.695 14.837-11.241 23.598-13.736a367.3 367.3 0 0 1 6.756-12.931c-22.274-.743-44.135 12.276-52.866 33.907Z" fill="#fdc45a" data-color="2"></path>
        <path d="M729.344 310.903c-7.308-3.11-15.229-4.428-23.084-4.103a367.234 367.234 0 0 1 6.724 12.874c8.803 2.52 16.947 7.104 23.6 13.742 6.695 6.708 11.241 14.835 13.736 23.597a367.558 367.558 0 0 1 12.93 6.756c.744-22.273-12.275-44.135-33.906-52.866Z" fill="#fdc45a" data-color="2"></path>
        <path d="M750.326 712.984c-2.521 8.804-7.104 16.947-13.742 23.6-6.707 6.695-14.836 11.24-23.597 13.736a367.02 367.02 0 0 1-6.756 12.931c22.274.742 44.135-12.276 52.866-33.907 3.11-7.308 4.428-15.229 4.103-23.085a366.779 366.779 0 0 1-12.874 6.725Z" fill="#fdc45a" data-color="2"></path>
        <path d="M333.416 736.584c-6.695-6.707-11.24-14.835-13.735-23.597a366.949 366.949 0 0 1-12.932-6.756c-.742 22.274 12.276 44.135 33.907 52.866 7.308 3.11 15.23 4.428 23.085 4.103a367.165 367.165 0 0 1-6.725-12.875c-8.804-2.52-16.947-7.103-23.6-13.74Z" fill="#fdc45a" data-color="2"></path>
        <path d="M646.41 758.93c-.532.265-1.064.533-1.598.795-28.092 13.76-58.67 22.115-90.442 24.534-.193.015-.386.026-.579.04a252.745 252.745 0 0 1-11.219.577c-.558.016-1.114.036-1.673.05-1.963.044-3.929.074-5.899.074s-3.936-.03-5.9-.075c-.558-.013-1.114-.033-1.672-.05a253.195 253.195 0 0 1-11.22-.576c-.192-.014-.385-.025-.578-.04-31.77-2.419-62.348-10.774-90.438-24.532-.536-.263-1.069-.531-1.603-.798a248.272 248.272 0 0 1-36.859-22.59c-4.75-3.509-9.39-7.21-13.91-11.079l.33.75a359.44 359.44 0 0 0 6.542 13.778 338.906 338.906 0 0 0 6.114 11.652 323.966 323.966 0 0 0 2.73 4.86 313.958 313.958 0 0 0 5.044 8.51 297.05 297.05 0 0 0 8.248 12.654C438.515 830.81 485.378 860 535 860s96.485-29.19 133.172-82.536a297.05 297.05 0 0 0 8.248-12.654 313.922 313.922 0 0 0 5.055-8.527 325.136 325.136 0 0 0 2.708-4.821 339.184 339.184 0 0 0 6.125-11.674 359.206 359.206 0 0 0 6.542-13.778l.33-.75a248.14 248.14 0 0 1-13.91 11.08 248.276 248.276 0 0 1-36.86 22.59Zm12.176 11.978C623.486 812.454 580.403 835 535 835s-88.486-22.546-123.586-64.092a257.535 257.535 0 0 1-14.194-18.458 230.76 230.76 0 0 0 17.889 15.349C450.665 795.277 491.899 810 535 810s84.335-14.723 119.891-42.201a230.774 230.774 0 0 0 17.889-15.349 257.537 257.537 0 0 1-14.194 18.458Z" fill="#6cabdd" data-color="3"></path>
        <path d="M777.464 401.828a296.998 296.998 0 0 0-12.654-8.248 313.462 313.462 0 0 0-8.527-5.055 327.285 327.285 0 0 0-16.495-8.833 359.556 359.556 0 0 0-13.778-6.542l-.75-.33c3.87 4.52 7.57 9.16 11.08 13.91a248.306 248.306 0 0 1 22.59 36.86c.267.535.536 1.07.8 1.607 13.755 28.088 22.11 58.663 24.529 90.43.015.197.026.395.04.591a253.943 253.943 0 0 1 .577 11.203c.016.56.036 1.121.05 1.683.044 1.955.074 3.912.074 5.875v.043c0 1.962-.03 3.919-.075 5.874-.013.562-.033 1.122-.05 1.684a256.125 256.125 0 0 1-.575 11.2c-.015.198-.026.396-.041.593-2.42 31.77-10.775 62.347-24.534 90.438-.262.534-.53 1.067-.796 1.6a248.306 248.306 0 0 1-22.59 36.859c-3.51 4.75-7.21 9.39-11.08 13.91l.75-.33a359.487 359.487 0 0 0 13.779-6.542 339.127 339.127 0 0 0 11.652-6.114 325.687 325.687 0 0 0 4.86-2.73 314.027 314.027 0 0 0 8.51-5.044 297.034 297.034 0 0 0 12.654-8.248C830.81 631.485 860 584.622 860 535s-29.19-96.485-82.536-133.172Zm-6.556 256.757a257.532 257.532 0 0 1-18.458 14.195 230.808 230.808 0 0 0 15.349-17.889C795.277 619.334 810 578.101 810 535s-14.723-84.335-42.201-119.891a230.811 230.811 0 0 0-15.349-17.889 257.478 257.478 0 0 1 18.458 14.195C812.454 446.515 835 489.596 835 535s-22.546 88.486-64.092 123.585Z" fill="#6cabdd" data-color="3"></path>
        <path d="M311.07 646.41a246.74 246.74 0 0 1-5.393-11.554c-11.03-25.306-17.8-52.43-19.936-80.49-.015-.187-.025-.376-.04-.564a253.822 253.822 0 0 1-.577-11.237c-.017-.554-.036-1.107-.05-1.662A256.331 256.331 0 0 1 285 535c0-1.971.03-3.938.075-5.903.013-.555.033-1.108.049-1.662a255.342 255.342 0 0 1 .577-11.236c.014-.188.025-.377.04-.566 2.294-30.137 9.929-59.2 22.45-86.085.932-2 1.895-3.985 2.88-5.96a248.321 248.321 0 0 1 22.589-36.858c3.51-4.75 7.21-9.39 11.08-13.91l-.75.33a359.21 359.21 0 0 0-13.885 6.595 339.017 339.017 0 0 0-11.545 6.06 323.817 323.817 0 0 0-4.86 2.73 313.48 313.48 0 0 0-8.51 5.045 296.99 296.99 0 0 0-12.654 8.248C239.19 438.515 210 485.378 210 535c0 49.623 29.19 96.485 82.536 133.172a296.998 296.998 0 0 0 12.654 8.248 313.466 313.466 0 0 0 8.527 5.055 327.292 327.292 0 0 0 16.282 8.727 359.369 359.369 0 0 0 13.991 6.648l.75.33a248.23 248.23 0 0 1-11.08-13.91 248.306 248.306 0 0 1-22.59-36.86Zm-11.978 12.176C257.546 623.486 235 580.404 235 535c0-45.403 22.546-88.486 64.092-123.586a257.542 257.542 0 0 1 18.458-14.194 230.804 230.804 0 0 0-15.349 17.889C274.723 450.666 260 491.899 260 535c0 43.1 14.723 84.334 42.201 119.891a230.811 230.811 0 0 0 15.349 17.889 257.547 257.547 0 0 1-18.458-14.194Z" fill="#6cabdd" data-color="3"></path>
        <path d="M423.59 311.07a246.667 246.667 0 0 1 11.532-5.383c25.311-11.035 52.443-17.81 80.509-19.946.192-.015.384-.026.576-.04a252.902 252.902 0 0 1 11.221-.577c.558-.016 1.114-.036 1.673-.05 1.963-.044 3.928-.074 5.899-.074 1.97 0 3.936.03 5.899.075.559.013 1.116.033 1.674.05a253.106 253.106 0 0 1 11.217.576c.193.014.387.025.58.04 28.057 2.136 55.182 8.907 80.487 19.936a246.686 246.686 0 0 1 11.554 5.394 248.293 248.293 0 0 1 36.859 22.589c4.75 3.51 9.39 7.21 13.91 11.08l-.33-.75a359.153 359.153 0 0 0-6.648-13.991 338.87 338.87 0 0 0-6.008-11.44 324.628 324.628 0 0 0-2.73-4.86 313.804 313.804 0 0 0-5.044-8.51 296.949 296.949 0 0 0-8.248-12.653C631.485 239.19 584.622 210 535 210s-96.485 29.19-133.172 82.536a297.05 297.05 0 0 0-8.248 12.654 314.062 314.062 0 0 0-5.055 8.527 325.657 325.657 0 0 0-2.708 4.821 338.876 338.876 0 0 0-6.02 11.46 359.513 359.513 0 0 0-6.647 13.992l-.33.75c4.52-3.87 9.16-7.57 13.91-11.08a248.294 248.294 0 0 1 36.86-22.59Zm-12.176-11.978C446.514 257.546 489.596 235 535 235s88.486 22.546 123.586 64.092a257.567 257.567 0 0 1 14.194 18.458 230.82 230.82 0 0 0-17.89-15.35C619.335 274.723 578.101 260 535 260s-84.335 14.723-119.891 42.201a230.773 230.773 0 0 0-17.89 15.35 257.52 257.52 0 0 1 14.195-18.46Z" fill="#6cabdd" data-color="3"></path>
        <path d="M465 738.336C486.945 745.889 510.491 750 535 750s48.055-4.11 70-11.664v-13.549c-2.476.131-4.948.217-7.41.217-44.42 0-85.496-21.268-112.696-58.35-8.366-11.407-15.013-23.84-19.894-36.89v108.572Z" fill="#6cabdd" data-color="3"></path>
        <path d="M605 491.236c-9.22 18.921-24.55 33.855-44.95 42.856-14.517 6.565-31.078 10.122-50.421 10.829a105.06 105.06 0 0 0-4.405 30.118c0 22.23 6.958 43.704 19.593 60.47l.131.178c17.71 24.61 46.7 39.301 77.551 39.3.836 0 1.668-.023 2.501-.045V491.236Z" fill="#6cabdd" data-color="3"></path>
        <path d="M513.23 454.3c15.085-11.669 31.808-19.982 49.454-24.706-2.082-6.537-5.843-13.023-12.351-18.225-12.271-9.931-30.225-15.73-50.603-16.366a83.24 83.24 0 0 0-1.646-.017c-11.852 0-22.84 2.862-33.084 6.48v93.54h12.094c9.457-15.634 21.734-29.567 36.136-40.707Z" fill="#6cabdd" data-color="3"></path>
        <path d="M605 331.664C583.055 324.111 559.509 320 535 320s-48.055 4.11-70 11.664v18.747c12.114-3.487 23.818-5.308 34.979-5.404.612-.009 1.272-.013 1.937-.013 27.994 0 54.516 8.064 74.68 22.706 12.406 9.01 21.945 20.084 28.404 32.815v-68.85Z" fill="#6cabdd" data-color="3"></path>
        <path d="M770.908 411.415a257.476 257.476 0 0 0-18.458-14.195 230.81 230.81 0 0 1 15.349 17.889c27.478 35.556 42.2 76.79 42.2 119.891s-14.722 84.334-42.2 119.891a230.81 230.81 0 0 1-15.349 17.889 257.532 257.532 0 0 0 18.458-14.195C812.453 623.485 835 580.403 835 535s-22.546-88.486-64.092-123.585Z" fill="#1c2c5b" data-color="4"></path>
        <path d="M885 535c0-59.74-34.843-115.214-98.347-157.117A80.049 80.049 0 0 0 788.3 361.7c0-44.112-35.888-80-80-80-5.542 0-10.954.569-16.182 1.647C650.213 219.843 594.738 185 535 185s-115.215 34.843-157.118 98.347A80.056 80.056 0 0 0 361.7 281.7c-44.112 0-80 35.888-80 80 0 5.542.568 10.954 1.647 16.182C219.843 419.787 185 475.261 185 535s34.843 115.214 98.347 157.118A80.048 80.048 0 0 0 281.7 708.3c0 44.112 35.888 80 80 80 5.543 0 10.954-.569 16.182-1.647C419.786 850.158 475.261 885 535 885s115.215-34.843 157.118-98.347A80.054 80.054 0 0 0 708.3 788.3c44.112 0 80-35.888 80-80 0-5.543-.568-10.955-1.647-16.182C850.158 650.214 885 594.74 885 535ZM729.344 310.903c21.631 8.73 34.65 30.593 33.907 52.866a367.549 367.549 0 0 0-12.931-6.756c-2.495-8.762-7.041-16.89-13.736-23.597-6.653-6.638-14.797-11.221-23.6-13.742a367.216 367.216 0 0 0-6.724-12.874c7.855-.325 15.776.993 23.084 4.103Zm-293.077 426.32c-44.96-21.992-81.498-58.53-103.49-103.49-12.922-26.416-20.826-55.733-22.456-86.716-.018-.34-.034-.682-.05-1.022a228.123 228.123 0 0 1-.164-4.308c-.013-.447-.029-.893-.04-1.341-.04-1.778-.067-3.559-.067-5.346s.026-3.568.068-5.346c.01-.448.026-.894.039-1.342.042-1.438.095-2.874.164-4.306.016-.341.032-.683.05-1.024 1.63-30.982 9.534-60.299 22.456-86.715a224.74 224.74 0 0 1 15.417-26.714c3.423 1.208 6.774 2.2 10.069 3.011 9.289 2.285 18.116 3.07 26.705 2.716v89.727h-7.909a10 10 0 0 1-9.915-8.696L365 480.007h-20v80h20l1.927-16.183a10 10 0 0 1 9.93-8.817h8.11v67.792a10 10 0 0 1-6.837 9.487l-8.162 2.72v20c11.406 0 22.694 1.74 33.498 5.094a112.953 112.953 0 0 1 22.549 9.79l8.953 5.117 12.855-15.321-19.152-20.216a50 50 0 0 1-13.703-34.388v-50.075h82.568c1.613.035 3.228.046 4.844.046h.005c3.629-.002 7.261-.099 10.886-.313 14.647-.867 29.155-3.645 42.698-9.777 23.222-10.233 37.97-28.167 44.719-49.845h-.001a97.94 97.94 0 0 0-2.445.077l-.1.004a96.892 96.892 0 0 0-17.043 2.292l-.036.008c-.79.179-1.577.367-2.36.566l-.014.003a96.524 96.524 0 0 0-16.068 5.62c-6.256 7.343-14.698 12.779-24.792 16.267a74.542 74.542 0 0 1-4.046 1.272l-.089.024a80.607 80.607 0 0 1-4.173 1.062c-.837.196-1.681.377-2.53.55-.385.08-.774.151-1.162.226a94.133 94.133 0 0 1-3.645.628c-.623.096-1.245.19-1.87.274v-.001a102.916 102.916 0 0 1 5.926-6.717l.043-.045a102.858 102.858 0 0 1 3.078-3.06l.142-.135a102.6 102.6 0 0 1 3.206-2.922 103.19 103.19 0 0 1 2.674-2.255l.092-.075a103.849 103.849 0 0 1 5.56-4.218l.137-.097a104.657 104.657 0 0 1 5.835-3.828l.025-.015a105.442 105.442 0 0 1 9.265-5.024h.001v-.001a106.899 106.899 0 0 1 7.118-3.099l.096-.038a107.38 107.38 0 0 1 3.441-1.278c.158-.056.317-.11.475-.165a108.19 108.19 0 0 1 3.428-1.13c1.205-.374 2.417-.72 3.634-1.05.18-.049.36-.099.54-.146a105.38 105.38 0 0 1 3.596-.89c.137-.032.275-.062.412-.093a107.424 107.424 0 0 1 7.608-1.425l.334-.05c1.287-.19 2.577-.356 3.87-.498l.15-.016c2.665-.288 5.341-.478 8.023-.565l.116-.004c1.351-.043 2.704-.06 4.057-.052.601.004 1.203.008 1.804.022.235.005.47.017.705.025h.025c.831.026 1.663.061 2.494.106h.015c1.674.092 3.347.223 5.018.394 16.102 1.652 31.974 7.04 46.206 16.464 14.907 9.724 27.231 23.27 35.672 38.928l14.772-2.604 8.66-15 6.569 1.343L735 487.415c-16.902-9.758-30.516-24.25-39.282-41.687l-2.777-5.523-2.597-5.167-8.283 2.22-11.036 2.957 4.17 20.859a121.02 121.02 0 0 0-20.352-12.82c-12.566-6.303-26.247-10.36-40.212-12.166a131.23 131.23 0 0 0-9.631-.88c-.158-.008-.316-.02-.474-.027a87.993 87.993 0 0 0-1.476-10.072c-9.717-46.855-56.162-70.75-102.985-70.103-11.903.103-23.703 2.316-35.065 5.828-7.57 2.34-14.946 5.25-22.022 8.517-.577.263-1.152.528-1.727.794-22.194 10.233-43.086 22.22-67.088 22.198a71.055 71.055 0 0 1-9.164-.588 94.762 94.762 0 0 1-3.142-.441c20.277-24.408 45.618-44.453 74.41-58.537 26.416-12.922 55.733-20.826 86.716-22.456.34-.018.682-.034 1.023-.05 1.431-.07 2.868-.122 4.306-.164.448-.013.894-.029 1.342-.04 1.778-.04 3.559-.067 5.346-.067s3.568.026 5.346.068c.448.01.894.026 1.341.039 1.44.042 2.876.095 4.308.163l1.022.05c30.983 1.631 60.3 9.535 86.716 22.457 44.96 21.992 81.498 58.53 103.49 103.49 12.922 26.417 20.826 55.734 22.457 86.718l.05 1.02a228.6 228.6 0 0 1 .163 4.307c.013.447.029.894.04 1.342.04 1.778.067 3.559.067 5.346s-.026 3.568-.068 5.346c-.01.448-.026.894-.039 1.342a228.386 228.386 0 0 1-.164 4.306c-.016.341-.032.682-.05 1.024-1.63 30.982-9.534 60.299-22.456 86.715a224.435 224.435 0 0 1-9.122 16.796l-7.16-7.541-10.715-11.289-14.063-2.48-1.028-.18c-.073.136-.152.268-.226.404-8.434 15.485-20.669 28.884-35.446 38.523a101.83 101.83 0 0 1-26.109 12.37A104.057 104.057 0 0 1 605 684.957c-33.714.797-67.38-14.54-88.17-43.43-20.562-27.284-26.435-63.882-17.647-96.501-.585-.008-1.17-.007-1.755-.02h-29.302C449.593 633.487 515.852 719.81 605 714.78c7.639-.43 15.443-1.525 23.38-3.353 1.802-.416 3.61-.862 5.426-1.353 26.885-7.562 51.374-25.411 66.923-48.208a113.4 113.4 0 0 1 5.875 2.663 112.71 112.71 0 0 1 6.588 3.473l2.322 1.327a225.943 225.943 0 0 1-8.198 10.348l-.242.287c-20.097 23.829-45.053 43.422-73.341 57.26-26.417 12.921-55.735 20.825-86.718 22.456l-1.019.05c-1.432.068-2.869.121-4.308.163-.448.013-.894.029-1.342.04-1.778.04-3.559.067-5.346.067s-3.568-.026-5.346-.068c-.448-.01-.895-.026-1.342-.039a228.409 228.409 0 0 1-4.306-.164c-.341-.016-.683-.032-1.024-.05-30.982-1.63-60.299-9.534-86.715-22.456ZM574.494 437.18a125.453 125.453 0 0 0-9.798 2.264c-31.063 8.51-57.945 28.68-75.828 55.564a139.354 139.354 0 0 0-6.063 10h-67.837v-95.165c4.605-1.393 9.222-2.998 13.887-4.747 8.1-3.037 16.344-6.514 24.937-10.115 3.795-1.485 7.516-2.854 11.208-4.076 11.545-3.82 22.796-6.174 35.042-5.896 19.885.62 40.926 5.917 56.534 18.55 7.948 6.352 13.078 14.626 15.857 23.803a58.885 58.885 0 0 1 2.061 9.818ZM535 210c49.622 0 96.485 29.19 133.172 82.536a296.949 296.949 0 0 1 8.248 12.654 313.763 313.763 0 0 1 5.045 8.51 324.5 324.5 0 0 1 2.73 4.86 338.851 338.851 0 0 1 6.007 11.439 359.153 359.153 0 0 1 6.648 13.991l.33.75c-4.52-3.87-9.16-7.57-13.91-11.08a248.292 248.292 0 0 0-36.86-22.59 246.676 246.676 0 0 0-11.553-5.393c-25.305-11.029-52.43-17.8-80.487-19.936-.193-.015-.387-.026-.58-.04a253.048 253.048 0 0 0-11.217-.577c-.558-.016-1.116-.037-1.674-.05A254.687 254.687 0 0 0 535 285c-1.97 0-3.936.03-5.9.075-.557.012-1.114.033-1.672.05a252.554 252.554 0 0 0-11.22.576c-.193.014-.385.025-.577.04-28.066 2.137-55.198 8.911-80.509 19.946a246.667 246.667 0 0 0-11.533 5.384 248.294 248.294 0 0 0-36.86 22.59c-4.75 3.51-9.39 7.21-13.91 11.079l.33-.75c2.13-4.747 4.35-9.409 6.649-13.991a338.903 338.903 0 0 1 6.02-11.46c.89-1.62 1.794-3.227 2.707-4.822a314.088 314.088 0 0 1 5.055-8.527 297.05 297.05 0 0 1 8.248-12.654C438.515 239.19 485.378 210 535 210ZM310.903 340.656c8.731-21.631 30.592-34.65 52.866-33.907a367.274 367.274 0 0 0-6.756 12.931c-8.761 2.495-16.89 7.041-23.597 13.736-6.638 6.653-11.22 14.796-13.741 23.6a367.63 367.63 0 0 0-12.875 6.725c-.325-7.856.993-15.777 4.103-23.085ZM210 535c0-49.622 29.19-96.485 82.536-133.172a296.984 296.984 0 0 1 12.654-8.248 313.455 313.455 0 0 1 8.51-5.045 343.3 343.3 0 0 1 4.86-2.73c3.782-2.08 7.633-4.1 11.545-6.06a359.225 359.225 0 0 1 13.885-6.595l.75-.33c-3.87 4.52-7.57 9.16-11.08 13.91a248.32 248.32 0 0 0-22.59 36.859 246.913 246.913 0 0 0-2.878 5.959c-11.782 25.296-19.234 52.52-21.985 80.753-.174 1.772-.33 3.55-.466 5.332-.015.189-.026.378-.04.566a251.797 251.797 0 0 0-.577 11.236c-.016.554-.037 1.107-.05 1.662A256.31 256.31 0 0 0 285 535c0 1.972.03 3.938.075 5.903.012.555.033 1.108.049 1.662a253.892 253.892 0 0 0 .578 11.237c.013.188.024.376.039.564 2.136 28.059 8.907 55.184 19.936 80.49a246.752 246.752 0 0 0 5.394 11.555 248.306 248.306 0 0 0 22.589 36.859c3.51 4.75 7.21 9.39 11.08 13.91l-.75-.33a359.361 359.361 0 0 1-13.991-6.648 327.292 327.292 0 0 1-16.282-8.727 313.48 313.48 0 0 1-8.527-5.055 296.992 296.992 0 0 1-12.654-8.248C239.19 631.485 210 584.622 210 535Zm130.656 224.097c-21.631-8.73-34.65-30.592-33.907-52.866a366.94 366.94 0 0 0 12.932 6.756c2.494 8.762 7.04 16.89 13.735 23.597 6.653 6.638 14.796 11.22 23.6 13.741a367.06 367.06 0 0 0 6.725 12.875c-7.856.325-15.777-.993-23.085-4.103ZM535 860c-49.622 0-96.485-29.19-133.172-82.536a297.05 297.05 0 0 1-8.248-12.654 313.943 313.943 0 0 1-5.045-8.51 323.878 323.878 0 0 1-2.73-4.86 338.888 338.888 0 0 1-6.113-11.652 359.44 359.44 0 0 1-6.542-13.778l-.33-.75c4.52 3.87 9.16 7.57 13.91 11.08a248.273 248.273 0 0 0 36.86 22.59c.533.266 1.066.534 1.602.797 28.09 13.758 58.668 22.113 90.438 24.532.193.015.386.026.579.04a251.522 251.522 0 0 0 11.219.577c.558.016 1.115.037 1.673.05 1.961.045 3.927.074 5.899.074s3.938-.03 5.9-.075c.557-.012 1.114-.033 1.672-.05a252.437 252.437 0 0 0 11.22-.576c.192-.014.385-.025.578-.04 31.772-2.419 62.35-10.775 90.442-24.534.534-.262 1.066-.53 1.599-.796a248.275 248.275 0 0 0 36.859-22.59c4.75-3.509 9.39-7.21 13.91-11.079l-.33.75a359.176 359.176 0 0 1-6.542 13.778 339.166 339.166 0 0 1-6.126 11.674 325.035 325.035 0 0 1-2.707 4.82 313.922 313.922 0 0 1-5.055 8.528 297.05 297.05 0 0 1-8.248 12.654C631.485 830.81 584.622 860 535 860Zm224.097-130.656c-8.731 21.631-30.592 34.65-52.866 33.907a367.011 367.011 0 0 0 6.756-12.931c8.761-2.495 16.89-7.041 23.597-13.736 6.638-6.653 11.221-14.796 13.742-23.6 4.37-2.178 8.67-4.417 12.874-6.725.325 7.856-.993 15.777-4.103 23.085Zm18.367-61.172a297.034 297.034 0 0 1-12.654 8.248 313.975 313.975 0 0 1-8.51 5.045 343.3 343.3 0 0 1-4.86 2.73 339.135 339.135 0 0 1-11.652 6.113 359.487 359.487 0 0 1-13.778 6.542l-.75.33c3.87-4.52 7.57-9.16 11.08-13.91a248.305 248.305 0 0 0 22.59-36.86c.265-.532.533-1.065.795-1.6 13.759-28.09 22.115-58.666 24.534-90.437.015-.197.026-.395.04-.593a252.834 252.834 0 0 0 .576-11.2c.017-.562.037-1.122.05-1.684a254.9 254.9 0 0 0 .075-5.874v-.043c0-1.965-.03-3.922-.075-5.875-.013-.562-.033-1.122-.05-1.683a254.08 254.08 0 0 0-.575-11.203c-.015-.197-.026-.394-.041-.59-2.42-31.768-10.774-62.343-24.53-90.43-.263-.538-.532-1.073-.8-1.609a248.306 248.306 0 0 0-22.59-36.859c-3.51-4.75-7.209-9.39-11.079-13.91l.75.33a359.54 359.54 0 0 1 13.778 6.542 327.285 327.285 0 0 1 16.495 8.833 313.477 313.477 0 0 1 8.527 5.055 296.992 296.992 0 0 1 12.654 8.248C830.81 438.515 860 485.378 860 535s-29.19 96.485-82.536 133.172Z" fill="#1c2c5b" data-color="4"></path>
        <path d="M535 260c43.1 0 84.335 14.723 119.891 42.201a230.821 230.821 0 0 1 17.889 15.349 257.567 257.567 0 0 0-14.194-18.458C623.486 257.546 580.403 235 535 235s-88.486 22.546-123.586 64.092a257.518 257.518 0 0 0-14.194 18.458 230.773 230.773 0 0 1 17.889-15.349C450.665 274.723 491.899 260 534.999 260Z" fill="#1c2c5b" data-color="4"></path>
        <path d="M302.201 654.891C274.723 619.334 260 578.101 260 535c0-43.1 14.723-84.334 42.201-119.891a230.81 230.81 0 0 1 15.349-17.889 257.542 257.542 0 0 0-18.458 14.194C257.546 446.514 235 489.597 235 535c0 45.404 22.546 88.486 64.092 123.586a257.542 257.542 0 0 0 18.458 14.194 230.81 230.81 0 0 1-15.349-17.889Z" fill="#1c2c5b" data-color="4"></path>
        <path d="M535 810c-43.1 0-84.335-14.723-119.891-42.201a230.76 230.76 0 0 1-17.889-15.35 257.537 257.537 0 0 0 14.194 18.46C446.514 812.453 489.597 835 535 835s88.486-22.546 123.586-64.092a257.535 257.535 0 0 0 14.194-18.458 230.772 230.772 0 0 1-17.889 15.349C619.335 795.277 578.101 810 535 810Z" fill="#1c2c5b" data-color="4"></path>
        <path d="M650.7 595.286c-2.7-.3-6.376-.825-8.175-1.575l.075-14.7 8.699.226c.6 1.875 1.125 4.125 1.5 6.3h5.85l.375-19.2h-6.3c-.45 2.176-.9 4.426-1.5 6.3l-8.624.075.075-16.049 14.324-.15c2.926 3 5.775 6.825 8.476 11.024l6.074-1.8-3.45-16.274h-45.673v6.6c2.1.3 4.724.975 6.524 1.425l.15 35.923c-1.874.9-3.899 1.425-6.674 1.875v5.25h28.273v-5.25Z" fill="#1c2c5b" data-color="4"></path>
        <path d="M704.926 601.437c8.773 0 17.624-4.5 22.648-9.675l-2.25-5.776c-4.273 3.076-13.574 8.1-20.549 8.1-7.5 0-11.25-2.774-11.324-20.698-.075-14.4 3.074-16.65 8.85-16.65 3.75 0 8.774 1.05 11.1 1.95 2.624 3.45 5.25 7.5 7.5 11.1l6.074-1.8-3.9-18.525H717.6l-.75 2.1c-2.625-1.575-7.5-3-12.3-3-13.5 0-26.099 10.125-26.099 27.524 0 14.85 12.45 25.35 26.475 25.35Z" fill="#1c2c5b" data-color="4"></path>
        <path d="M535 25c68.856 0 135.645 13.482 198.51 40.072 60.729 25.686 115.272 62.461 162.114 109.303 46.843 46.843 83.618 101.386 109.304 162.115C1031.518 399.355 1045 466.144 1045 535s-13.482 135.645-40.072 198.51c-25.686 60.729-62.461 115.272-109.304 162.114-46.842 46.843-101.385 83.618-162.114 109.304C670.645 1031.518 603.856 1045 535 1045s-135.645-13.482-198.51-40.072c-60.729-25.686-115.272-62.461-162.115-109.304C127.533 848.782 90.758 794.24 65.072 733.51 38.482 670.645 25 603.856 25 535s13.482-135.645 40.072-198.51c25.686-60.729 62.461-115.272 109.303-162.115 46.843-46.842 101.386-83.617 162.115-109.303C399.355 38.482 466.144 25 535 25m0-25C239.528 0 0 239.528 0 535s239.528 535 535 535 535-239.528 535-535S830.472 0 535 0Z" fill="#1c2c5b" data-color="4"></path>
        <path d="M129.494 497.284c.01-3.299-.209-5.743-.891-8.087l-41.617-6.71c-.866 1.996-2.15 4.906-2.9 7.28l-7.64-1.265 5.476-33.08c2.53-15.28 11.1-24.477 22.733-22.55 11.635 1.925 16.783 13.393 14.253 28.674l-1.61 9.724 13.878 2.386c1.242-2.113 2.844-6.397 3.895-10.06l6.077 1.008-5.576 33.686-6.078-1.006Zm-18.413-35.875c1.51-9.116.597-10.605-7.405-11.84-10.81-1.523-11.75-.697-13.099 8.535l-1.307 8.436 20.388 3.465 1.423-8.596Z" fill="#1c2c5b" data-color="4"></path>
        <path d="M141.911 428.009c.588-3.246.8-5.692.538-8.117l-39.798-13.89c-1.202 1.815-2.975 4.455-4.129 6.66l-7.3-2.582 18.016-50.938 19.353 2.55-.386 7.425c-5.731 1.426-11.049 3-15.512 5.06l-5.585 16.32 16.48 5.923 3.175-9.238c-1.62-1.227-3.684-2.517-5.695-3.695l2.495-7.051 20.345 7.662-2.318 6.554c-2.553-.436-5.218-.819-7.527-.888l-3.837 9.003 18.305 6.568 6.084-17.73c-2.745-5.171-5.256-9.42-9.119-14.333l4.285-6.044 16.453 10.486-18.515 52.348-5.808-2.053Z" fill="#1c2c5b" data-color="4"></path>
        <path d="M165.22 362.96c.551-2.017.94-3.926 1.065-6.087-11.703-14.246-23.34-28.96-34.255-43.87l8.12-14.112c18.178 1.93 36.989 4.529 55.34 7.574a23.392 23.392 0 0 0 4.606-3.95l5.34 3.073-15.667 27.231-5.721-3.292c1.208-2.452 2.646-5.482 3.353-8.122l-11.673-1.944-11.367 19.757 7.768 8.732c1.795-1.708 3.78-4.628 5.38-7.056l5.721 3.29-12.594 21.892-5.416-3.115Zm-6.516-30.145 8.426-14.645c-7.78-1.125-15.679-2.218-23.59-3.114a1283.26 1283.26 0 0 0 15.164 17.76Z" fill="#1c2c5b" data-color="4"></path>
        <path d="M188.048 281.53c-15.633-13.13-15.222-32.09-5.034-44.22 3.622-4.312 8.58-7.616 11.976-8.786l-1.32-2.258 4.13-4.92 19.588 10.475-2.967 6.817c-4.933-.696-10.552-1.393-15.633-1.638-2.562 1.41-7.298 5.132-10.128 8.501-4.357 5.188-4.713 9.717 8.281 20.516 16.162 13.459 21.485 12.183 27.144 5.445 5.263-6.267 7.767-18.414 8.23-24.575l6.886 2.336c.858 8.42-1.778 19.766-8.4 27.65-10.582 12.6-29.411 15.863-42.753 4.657Z" fill="#1c2c5b" data-color="4"></path>
        <path d="M282.763 216.602c2.263-2.518 3.964-5.032 5.032-7.486l-10.884-13.268-20.225 16.418 10.747 13.379c2.485-.43 5.295-1.578 8.36-3.386l3.883 4.783-25.009 20.3-3.882-4.782c2.195-2.462 3.652-4.439 4.694-6.645l-26.705-32.62c-1.767.756-5.136 2.47-6.998 3.528l-4.88-6.012 25.007-20.301 4.881 6.013c-2.4 2.628-3.964 5.032-4.895 7.374l9.416 11.74 20.157-16.363-9.484-11.683a29.863 29.863 0 0 0-8.224 3.274l-4.881-6.012 24.872-20.19 4.881 6.013c-2.264 2.517-3.516 4.327-4.49 6.478l26.098 32.431c2.306-.512 4.471-1.476 7.4-3.173l3.883 4.783-24.871 20.19-3.883-4.783Z" fill="#1c2c5b" data-color="4"></path>
        <path d="M330.57 183.538c3.064-2.113 5.46-4.172 7.225-6.296l-20.138-37.83-7.12 3.852c-1.055 5.927-1.44 11.8-1.704 17.908l-7.368 1.496-6.086-21.362 50.836-26.794 14.182 17.095-5.243 5.152c-5.498-3.071-10.488-6.31-15.932-8.713l-7.121 3.852 19.708 37.958c2.672-.214 5.88-1.109 9.355-2.443l2.872 5.45-30.595 16.124-2.872-5.449Z" fill="#1c2c5b" data-color="4"></path>
        <path d="M384.934 156.09c2.957-1.461 5.047-2.747 6.84-4.402l-12.543-40.244c-2.199.032-5.35.263-7.808.65l-2.274-7.403 32.976-10.127c15.479-4.752 27.361-1.13 30.41 8.797 2.402 7.824-.662 14.932-7.995 20.13l15.772 13.29c2.246.416 5.253.32 7.544-.014l1.808 5.888-19.6 6.019-21.496-18.438-6.224 1.911 4.36 14.496c2.295.584 5.161.624 8.345.199l1.808 5.888-30.116 9.249-1.807-5.89Zm9.615-49.625 5.495 18.196 9.254-2.842c9-2.763 9.953-4.16 7.492-11.874-2.648-8.024-4.148-9.312-11.525-6.955l-10.716 3.475Z" fill="#1c2c5b" data-color="4"></path>
        <path d="M457.59 135.067c3.175-.901 5.464-1.787 7.527-3.09l-5.042-41.853c-2.159-.28-5.31-.71-7.799-.776l-.894-7.693 53.675-6.24 6.226 18.502-6.837 2.922c-3.803-4.52-7.556-8.603-11.372-11.702l-17.114 2.166 1.936 17.406 9.693-1.215c.388-1.994.638-4.416.81-6.74l7.431-.863 2.073 21.643-6.906.803c-.731-2.484-1.56-5.046-2.515-7.15l-9.774.516 2.16 19.33 18.599-2.34c3.435-4.74 6.145-8.866 8.857-14.497l7.315 1.188-2.176 19.39-55.16 6.413-.712-6.12Z" fill="#1c2c5b" data-color="4"></path>
        <path d="M529.006 127.78c3.281-.338 5.688-.813 7.946-1.738l2.295-42.088c-2.077-.651-5.105-1.622-7.544-2.118l.453-7.73 53.938 3.166 2.92 19.3-7.238 1.69c-2.962-5.11-5.949-9.78-9.169-13.495l-17.227-.835-1.114 17.475 9.755.485c.729-1.897 1.395-4.238 1.968-6.495l7.467.438-1.713 21.672-6.94-.407c-.29-2.574-.661-5.24-1.236-7.478l-9.714-1.187-1.228 19.409 18.722.923c4.206-4.073 7.59-7.664 11.237-12.74l6.997 2.439-5.507 18.717-55.43-3.255.362-6.149Z" fill="#1c2c5b" data-color="4"></path>
        <path d="M634.304 116.876c6.032-19.506 23.667-26.487 38.8-21.808 5.381 1.664 10.352 4.952 12.75 7.627l1.568-2.093 6.138 1.898-2.051 22.118-7.434-.088c-1.274-4.815-2.813-10.265-4.56-15.044-2.294-1.814-7.563-4.733-11.767-6.033-6.474-2.003-10.785-.572-15.693 15.597-6.13 20.12-2.888 24.53 5.52 27.13 7.819 2.419 19.986.01 25.844-1.955l.52 7.254c-7.427 4.058-18.908 6.035-28.745 2.993-15.722-4.863-26.039-20.949-20.89-37.596Z" fill="#1c2c5b" data-color="4"></path>
        <path d="M705.581 140.258c9.587-18.225 27.964-21.781 43.773-13.465 16.123 8.481 23.29 25.477 13.949 43.233-8.768 16.666-27.022 19.99-42.598 11.796-15.654-8.235-23.686-25.287-15.124-41.564Zm40.572 25.32c10.558-21.392 10.066-24.236-2.596-30.599-9.858-4.887-13.408-4.567-20.548 9.575-10.23 20.77-10.025 24.159 2.756 30.484 9.662 4.884 13.493 4.215 20.388-9.46Z" fill="#1c2c5b" data-color="4"></path>
        <path d="M763.045 197.33c2.875 1.617 5.116 2.617 7.494 3.164l26.153-33.058c-1.266-1.8-3.235-4.27-4.941-6.082l4.83-6.053 26.964 21.514c12.656 10.1 16.37 21.956 9.892 30.073-5.104 6.396-12.703 7.877-21.131 4.754l-2.077 20.521c.923 2.088 2.7 4.519 4.269 6.22l-3.843 4.816-16.027-12.789 3.098-28.15-5.09-4.062-9.509 11.777c.813 2.225 2.396 4.615 4.544 7.004l-3.842 4.814-24.626-19.648 3.842-4.816Zm46.4-20.057-11.925 14.803 7.567 6.038c7.36 5.872 9.05 5.87 14.031-.512 5.132-6.714 5.349-8.68-.759-13.44l-8.915-6.889Z" fill="#1c2c5b" data-color="4"></path>
        <path d="m864.65 229.96-29.95 26.453c.49 2.474 1.818 5.389 3.357 8.008l-4.688 3.996-16.383-19.22 4.688-3.997c2.457 2.069 4.467 3.478 6.698 4.467l32.421-26.941c-1.015-2.141-2.648-5.143-4.093-7.38l5.894-5.024 18.323 21.498-16.502 48.06 25.823-22.474c-.7-2.177-1.84-4.328-3.855-7.235l5.893-5.024 15.413 18.083-5.893 5.023c-1.525-1.245-3.83-2.864-5.497-3.871l-39.012 32.096-10.731-12.591 18.092-53.925Z" fill="#1c2c5b" data-color="4"></path>
        <path d="M873.03 307.742c2.074 2.567 3.786 4.324 5.793 5.712l36.524-21.049c-.588-2.096-1.427-5.164-2.343-7.478l6.726-3.84 26.786 46.93-14.58 12.982-5.368-5.145c2.666-5.27 4.95-10.323 6.306-15.05l-8.703-14.892-15.253 8.605 4.919 8.44c1.986-.425 4.311-1.144 6.518-1.896l3.707 6.497-19.096 10.393-3.446-6.038c1.998-1.647 4.029-3.415 5.59-5.117l-4.307-8.79-16.935 9.565 9.445 16.193c5.708 1.301 10.566 2.177 16.81 2.464l1.774 7.195-18.69 5.601-27.527-48.228 5.35-3.054Z" fill="#1c2c5b" data-color="4"></path>
        <path d="M907.871 370.519c1.573 2.899 2.939 4.938 4.662 6.667l39.732-14.083c-.116-2.197-.468-5.337-.95-7.779l7.311-2.556 11.389 32.562c5.345 15.285 2.182 27.299-7.62 30.728-7.726 2.702-14.948-.087-20.423-7.215l-12.675 16.273c-.33 2.259-.118 5.262.306 7.538l-5.816 2.033-6.77-19.354 17.598-22.19-2.15-6.148-14.317 4.914c-.494 2.318-.423 5.184.124 8.348l-5.815 2.034-10.401-29.74 5.815-2.032Zm49.96 7.699-17.972 6.192 3.196 9.137c3.108 8.889 4.54 9.786 12.154 7.03 7.917-2.955 9.146-4.504 6.507-11.785l-3.885-10.574Z" fill="#1c2c5b" data-color="4"></path>
        <path d="m929.437 454.9-2.212-.445-1.042-6.428 17.87-7.444 3.039 6.64c-3.341 3.038-5.827 5.847-8.897 9.465-.772 4.583-1.26 13.667-.472 18.532.62 3.822 2.379 5.32 6.865 4.949 3.416-.376 4.49-.906 5.183-4.317.708-2.79 1.13-6.78 1.65-12.927 1.165-14.81 4.917-22.461 15.167-24.123 12.509-2.029 21.329 8.933 23.188 20.4.958 5.907.357 10.997-.789 14.928l2.198.356 1.055 6.516-17.998 6.662-3.21-6.611c3.57-2.719 6.477-5.687 9.067-8.96.39-3.094.577-9.632-.014-13.28-.662-4.084-2.087-5.724-6.994-5.197-3.242.348-4.113 1.024-4.91 4.363-.648 2.601-1.073 7.127-1.55 13.535-.927 13.522-4.349 21.566-14.512 23.214-12.509 2.028-21.066-9.512-23.066-21.847-1.029-6.341-.768-12.98.384-17.982Z" fill="#1c2c5b" data-color="4"></path>
        <path d="M905.555 798.479c1.25-3.053 1.965-5.402 2.213-7.83l-36.045-21.856c-1.415 1.3-4.02 4.039-5.424 5.656l-6.605-4.043 17.551-28.672c7.673-12.534 17.556-19.073 26.263-13.743 6.23 3.814 6.817 10.777 4.233 17.863l.15.091c6.514-7.775 14.192-10.71 21.098-6.484 9.832 6.018 8.375 18.85-.262 32.96l-17.918 29.273-5.254-3.215Zm-6.756-43.242c3.951-6.455 3.456-8.511-2.623-12.233-6.306-3.86-8.367-2.852-12.06 3.35l-4.903 8.347 14.486 8.868 5.1-8.332Zm23.778 12.905c4.777-7.807 4.737-10.101-2.243-14.374s-9.388-3.373-14.78 5.604l-4.95 8.424 16.212 9.924 5.761-9.578Z" fill="#1c2c5b" data-color="4"></path>
        <path d="m839.486 847.05-19.361-17.295c-1.46.695-3.873 2.31-5.374 3.444l-5.74-5.198 20.969-23.157 5.74 5.198c-2.149 3.16-3.269 5.707-3.89 8.23l20.76 19.156c9.074 8.335 11.418 7.844 19.628-1.223 8.033-8.871 8.128-11.991-.738-19.9l-20.986-18.646c-2.45.868-4.932 2.3-7.805 4.686l-5.74-5.199 16.894-18.656 5.74 5.198c-1.04 1.671-2.29 4.101-2.83 5.748l19.32 17.732c13.445 12.292 11.752 24.65.706 36.848-11.045 12.198-23.404 15.49-37.293 3.034Z" fill="#1c2c5b" data-color="4"></path>
        <path d="M789.872 911.245c2.254-2.407 3.758-4.348 4.854-6.527l-25.904-33.251c-1.994.873-4.916 2.129-7.08 3.356l-4.734-6.129 25.628-19.793 4.733 6.128c-2.393 2.516-4.277 4.972-5.265 7.291l25.41 33.187 12.288-9.713a96.885 96.885 0 0 0-.97-18.82l6.809-2.7 9.293 19.95-41.297 31.896-3.765-4.875Z" fill="#1c2c5b" data-color="4"></path>
        <path d="M711.014 929.607c-9.558-18.04-2.056-35.459 11.94-42.875 4.977-2.636 10.814-3.836 14.4-3.646l-.375-2.589 5.676-3.008 14.22 17.065-5.31 5.203c-4.31-2.497-9.256-5.254-13.874-7.389-2.904.344-8.691 2.016-12.579 4.076-5.987 3.172-8.017 7.236-.029 22.124 9.924 18.543 15.336 19.36 23.112 15.24 7.232-3.831 14.114-14.15 16.857-19.686l5.505 4.751c-2.368 8.126-9.07 17.653-18.17 22.474-14.54 7.704-33.215 3.656-41.373-11.74Z" fill="#1c2c5b" data-color="4"></path>
        <path d="M620.432 981.385c3.024-1.318 5.174-2.502 7.045-4.07l-10.601-40.798c-2.177.01-5.357.005-7.832.274l-1.916-7.504 31.378-8.013 1.916 7.504c-3.194 1.36-5.898 2.868-7.725 4.607l10.173 40.545 15.134-4.047a96.902 96.902 0 0 0 6.57-17.663l7.322.22.624 22.001-50.564 12.913-1.524-5.97Z" fill="#1c2c5b" data-color="4"></path>
        <path d="M545.545 989.281c3.2-.799 5.517-1.612 7.62-2.848l-3.705-41.99c-2.15-.35-5.284-.88-7.77-1.025l-.648-7.717 32.27-2.713.649 7.718c-3.376.814-6.291 1.853-8.38 3.265l3.325 41.669 15.595-1.488a96.944 96.944 0 0 0 9.401-16.333l7.185 1.428-3.024 21.802-52.002 4.37-.516-6.138Z" fill="#1c2c5b" data-color="4"></path>
        <path d="M457.714 983.247c2.064-.338 3.96-.78 5.978-1.563 8.084-16.57 16.621-33.273 25.637-49.4l16.21 1.509c5.808 17.333 11.272 35.518 16.139 53.47a23.387 23.387 0 0 0 5.507 2.546l-.572 6.132-31.278-2.914.612-6.57c2.733.077 6.086.124 8.78-.332l-3.09-11.423-22.692-2.114-4.709 10.696c2.301.922 5.782 1.51 8.657 1.955l-.613 6.572-25.146-2.343.58-6.22Zm24.698-18.467 16.822 1.568c-2.213-7.542-4.506-15.18-6.983-22.745a1280.074 1280.074 0 0 0-9.839 21.177Z" fill="#1c2c5b" data-color="4"></path>
        <path d="M378.498 961.986c3.275.397 5.73.464 8.136.06l11.533-40.547c-1.629-1.02-4.96-2.808-6.892-3.731l2.15-7.44 32.298 9.331c14.119 4.08 23.042 11.88 20.208 21.687-2.028 7.017-8.587 9.427-16.105 8.813l-.049.17c9.224 4.222 14.088 10.849 11.84 18.627-3.2 11.076-15.96 13.068-31.854 8.476l-32.975-9.528 1.71-5.918Zm33.764 8.381c8.793 2.541 10.995 1.895 13.267-5.969 2.272-7.862.767-9.946-9.319-12.768l-9.434-2.543-5.276 18.263 10.762 3.017Zm6.147-26.346c7.27 2.1 9.123 1.078 11.103-5.77 2.051-7.103.533-8.823-6.424-10.742l-9.35-2.519-4.715 16.319 9.386 2.712Z" fill="#1c2c5b" data-color="4"></path>
        <path d="M315.425 932.313c3.498 1.273 6.564 2.033 9.318 2.24L343.9 896.22l-7.266-3.57c-5.442 2.577-10.451 5.665-15.58 8.99l-5.49-5.136 13.881-17.34 51.294 25.896-5.71 21.464-7.236-1.287c-.685-6.26-.937-12.203-2.134-18.032l-7.266-3.57-19.51 38.057c1.723 2.054 4.313 4.15 7.414 6.207l-2.776 5.5-30.872-15.586 2.777-5.499Z" fill="#1c2c5b" data-color="4"></path>
        <path d="M246.234 856.627c12.58-16.304 31.294-16.647 45.438-5.733 14.422 11.127 18.558 29.102 6.303 44.987-11.504 14.91-30.059 15.044-43.993 4.292-14.003-10.805-18.983-28.986-7.748-43.546Zm35.612 31.923c14.08-19.258 14.085-22.145 2.706-30.59-8.87-6.51-12.422-6.806-21.889 5.896-13.65 18.7-14.031 22.075-2.53 30.504 8.679 6.473 12.568 6.474 21.713-5.81Z" fill="#1c2c5b" data-color="4"></path>
        <path d="M189.874 795.257c15.457-13.604 33.893-10.371 45.694 3.038 12.035 13.674 12.667 32.106-2.393 45.361-14.136 12.442-32.374 9.034-44.001-4.176-11.686-13.278-13.106-32.073.7-44.223Zm28.867 38.127c17.494-16.217 18.049-19.05 8.491-29.51-7.465-8.083-10.895-9.05-22.61 1.613-16.966 15.752-17.983 18.992-8.3 29.46 7.282 8.01 11.1 8.751 22.42-1.563Z" fill="#1c2c5b" data-color="4"></path>
        <path d="M131.35 743.954c2.13 2.519 3.882 4.237 5.921 5.578l36.03-21.873c-.635-2.082-1.544-5.13-2.512-7.422l6.636-3.99 27.617 45.923-14.277 13.31-5.484-5.02c2.591-5.254 4.713-10.433 5.961-15.188l-8.812-14.312-16.183 9.63 5.29 8.626c2.248-.53 4.783-1.439 7.242-2.301l3.809 6.334-19.531 11.232-3.537-5.881c1.96-1.693 3.905-3.58 5.427-5.318l-5.034-8.884-14.826 8.814c.335 2.263 2.028 6.275 3.36 9.172l-5.279 3.175-17.097-28.43 5.279-3.175Z" fill="#1c2c5b" data-color="4"></path>
        <path d="M75.139 629.724c3.9-.525 6.3-.975 8.7-1.875L83.688 592c-2.326 0-5.626-.074-8.25 0l-.45-7.274 22.574-1.5-.225 44.623c2.1.9 4.575 1.275 7.65 1.575v5.55h-29.85v-5.25Z" fill="#6cabdd" data-color="3"></path>
        <path d="M115.488 625.974c0-3.9 3.675-6.6 7.574-6.374 3.75.149 5.25 3.224 4.875 8.249 1.95.525 6.3 1.2 8.475 1.05 6.15-.225 7.2-3.375 7.2-16.8v-.3c-3.15 2.775-7.35 4.8-11.925 4.8-10.125 0-17.549-6.45-17.549-15.899 0-9.9 8.85-17.699 20.85-17.699 12.299 0 23.248 8.925 23.248 25.874 0 14.849-10.874 26.999-25.124 26.999-9.45 0-17.624-3.226-17.624-9.9Zm28.049-19.2c-.375-14.324-2.625-15.598-8.475-15.598s-6.9 1.199-6.9 9.15c0 7.649 1.575 8.474 5.25 8.474 3.225 0 7.35-.975 10.125-2.026Z" fill="#6cabdd" data-color="3"></path>
        <path d="m918.063 631.749 25.274-36.898-19.724.3a40.166 40.166 0 0 0-5.55 9.449l-6.3-1.8 3-18.9h35.774V595l-21.45 41.099c-4.874-.375-8.025-1.8-11.023-4.35Z" fill="#6cabdd" data-color="3"></path>
        <path d="M957.438 625.374c0-4.05 3.75-6.45 7.425-6.3 3.75.15 5.175 3.3 4.725 8.25 3 .975 8.625 1.425 11.175 1.425 3.6 0 4.8-1.05 4.8-6.975 0-6.15-1.126-6.9-7.95-7.5l-16.8-1.724c.225-9.3.975-19.2 2.175-28.65h23.399c1.5-2.25 2.85-4.724 3.9-7.199l6.074 1.725-2.699 15.6h-23.1c-.449 2.174-.674 4.8-.6 6.824l6.676.675c13.124 1.35 21.598 6.075 21.598 16.874 0 11.25-9.6 17.475-20.549 17.475-10.875 0-20.249-3.825-20.249-10.5Z" fill="#6cabdd" data-color="3"></path>
    </g>
</svg>